<svg width="22" height="20" xmlns="http://www.w3.org/2000/svg"><g fill="none" fill-rule="evenodd"><path d="M-1-1h24v22H-1z"/><g fill="#007FED"><path d="M20 .833H2c-1.103 0-2 .823-2 1.834v14.666c0 1.011.897 1.834 2 1.834h18c1.103 0 2-.823 2-1.834V2.667c0-1.011-.897-1.834-2-1.834zM20 4.5h-8V2.667h8V4.5zm-13 0V2.667h3V4.5H7zM5 2.667V4.5H2V2.667h3zM2 17.333v-11h17.999l-.002 11H2z" fill-rule="nonzero"/><path d="M4 8.166h14V10H4zM4 10.916h2V15.5H4zM8 10.916h10v1.833H8zM8 13.666h10V15.5H8z"/></g></g></svg>
