<svg width="22" height="20" xmlns="http://www.w3.org/2000/svg"><g fill="none" fill-rule="evenodd"><path d="M-.455-1h24v22h-24z"/><path d="M21.545 3.647c0-.735-.312-1.425-.878-1.943-1.133-1.04-3.11-1.04-4.243 0L6.215 11.061c-.93.062-1.839.39-2.519 1.012-1.416 1.297-1.356 2.39-1.309 3.267.041.755.07 1.3-.923 2.21L.022 18.873c1.816.212 2.244.294 3.244.294 1.496 0 4.276-.249 6.085-1.907a3.496 3.496 0 0 0 1.146-2.348l10.17-9.32c.566-.52.878-1.21.878-1.945zM7.938 15.965c-1.043.955-2.655 1.258-3.865 1.34.38-.803.342-1.492.312-2.053-.087-1.613 1.083-2.417 2.14-2.417.533 0 1.035.19 1.413.536.783.716.784 1.873 0 2.594zm11.314-11.67l-9.293 8.52a3.741 3.741 0 0 0-.607-.742 3.726 3.726 0 0 0-.815-.548l9.301-8.527c.377-.345 1.036-.345 1.414 0a.88.88 0 0 1 .293.65.875.875 0 0 1-.293.648z" fill="#007FED" fill-rule="nonzero"/></g></svg>
