<svg width="25" height="19" xmlns="http://www.w3.org/2000/svg"><g fill="none" fill-rule="evenodd"><path d="M.818-1h24v22h-24z"/><path d="M.894 5.066c.155-.342.52-.566.924-.566h10.5l2.7-3.3c.19-.231.485-.367.8-.367h4c.304 0 .591.129.781.344l4 4.583c.24.277.287.653.121.971a1.015 1.015 0 0 1-.902.519h-4v3.667c0 .16-.045.316-.132.454l-4 6.417a1.018 1.018 0 0 1-.868.462h-9c-.425 0-.803-.247-.944-.612a.871.871 0 0 1 .32-1.02l4.126-3.027-8.21-7.526a.863.863 0 0 1-.216-1zm13.244.265l3.68 3.373V2.667h-1.5l-2.18 2.664zm7.6.086l-1.92-2.199v2.199h1.92zm-13.069 11h3.735l-1.66-1.521-2.075 1.52zm5.93-.58l2.972-4.767-5.167-4.737H4.232L14.6 15.836z" fill="#007FED" fill-rule="nonzero"/></g></svg>
