<svg width="20" height="22" xmlns="http://www.w3.org/2000/svg"><g fill="none" fill-rule="evenodd"><path d="M-2-1h24v24H-2z"/><g fill="#007FED"><path d="M3 2.003h10v4h4v1h2V4.59L14.414.004H3c-1.103 0-2 .896-2 2v5h2V2.003zM17 20.003H3v-1H1v1c0 1.103.897 2 2 2h14c1.103 0 2-.897 2-2v-1h-2v1z"/><path d="M2 15.003h2v2h2v-7a1 1 0 0 0-1-1H1a1 1 0 0 0-1 1v7h2v-2zm0-4h2v2H2v-2z" fill-rule="nonzero"/><path d="M7 9v7a1.002 1.002 0 0 0 1.832.555L10 14.802l1.168 1.752A1 1 0 0 0 13 16V9h-2v3.697l-.168-.251c-.371-.557-1.293-.557-1.664 0L9 12.697V9H7zM16.5 11.003H20v-2h-3.5a2.503 2.503 0 0 0-2.5 2.5c0 1.379 1.122 2.5 2.5 2.5h1a.5.5 0 0 1 0 1H14v2h3.5c1.378 0 2.5-1.121 2.5-2.5 0-1.378-1.122-2.5-2.5-2.5h-1a.5.5 0 0 1 0-1z"/></g></g></svg>
