<svg width="22" height="22" xmlns="http://www.w3.org/2000/svg"><g fill="none" fill-rule="evenodd"><path d="M-.364-.081h24v22.08h-24z"/><path d="M17.05 2.037a1.063 1.063 0 0 0-1.414 0l-.722.664L12.771.73 5.636 7.294 7.05 8.596l5.722-5.265.73.671-10.724 9.864a.997.997 0 0 0-.194.269c-.01.02-2.189 6.005-2.189 6.005a.862.862 0 0 0 .241.94c.266.247.664.333 1.022.222 0 0 6.505-2.006 6.527-2.014.097-.04.217-.11.292-.179L21.337 7.28a.872.872 0 0 0 0-1.302L17.05 2.037zm-3.563 4.58l2.871 2.643-8.585 7.898-2.872-2.643 8.586-7.898zM2.924 18.975l1-2.756 1.998 1.838-2.998.918zM17.771 7.958l-2.87-2.641 1.442-1.329 2.872 2.642-1.444 1.328z" fill="#007FED" fill-rule="nonzero"/></g></svg>
