<svg width="15" height="20" xmlns="http://www.w3.org/2000/svg"><g fill="none" fill-rule="evenodd"><path d="M-4.636-2h24v24h-24z"/><g transform="translate(.364)" fill="#007FED"><path d="M12 0H2C.897 0 0 .898 0 2v16c0 1.103.897 2 2 2h10c1.104 0 2-.897 2-2V2c0-1.102-.896-2-2-2zm0 2l-.001 4H2V2h10zM2 18V8h9.999l-.002 10H2z" fill-rule="nonzero"/><circle cx="4" cy="10" r="1"/><circle cx="7" cy="10" r="1"/><circle cx="10" cy="10" r="1"/><path d="M9 3h2v2H9z"/><circle cx="4" cy="13" r="1"/><circle cx="7" cy="13" r="1"/><circle cx="10" cy="13" r="1"/><circle cx="4" cy="16" r="1"/><circle cx="7" cy="16" r="1"/><circle cx="10" cy="16" r="1"/></g></g></svg>
