<svg width="19" height="24" xmlns="http://www.w3.org/2000/svg"><g fill="none" fill-rule="evenodd"><path d="M-2.727 0h24v24h-24z"/><g fill="#007FED"><path d="M6.27 8.998h-2v4h3v-2h-1zM11.27 8.998h-2v4h3v-2h-1z"/><path d="M9.27-.002c-4.962 0-9 4.038-9 9v14a1.002 1.002 0 0 0 1.707.708l3.294-3.293 3.293 3.293a1 1 0 0 0 1.414 0l3.293-3.293 3.293 3.293a1 1 0 0 0 1.707-.708v-14c0-4.963-4.037-9-9-9zm7 20.586l-2.292-2.293a1 1 0 0 0-1.414 0L9.27 21.584l-3.293-3.293a.997.997 0 0 0-1.414 0L2.27 20.584V8.998c0-3.858 3.14-7 7-7 3.859 0 7 3.142 7 7v11.586z" fill-rule="nonzero"/></g></g></svg>
