<svg width="25" height="24" xmlns="http://www.w3.org/2000/svg"><g fill="none" fill-rule="evenodd"><path d="M.91 0h24v24h-24z"/><g fill="#007FED" fill-rule="nonzero"><path d="M9.91 20a1 1 0 0 0-1-1h-6a1 1 0 0 0-1 1v2h-1v2h10v-2h-1v-2zm-6 2v-1h4v1h-4zM23.202 19.707l1.414-1.414-7.793-7.793 1.086-1.086.293.292a.99.99 0 0 0 .707.294.993.993 0 0 0 .707-.293l2-2a.999.999 0 0 0 0-1.414l-6-6a1 1 0 0 0-1.414 0l-2 2a.999.999 0 0 0 0 1.414l.293.293L8.91 7.586l-.293-.293a1 1 0 0 0-1.414 0l-2 2a.999.999 0 0 0 0 1.414l6 6a.993.993 0 0 0 .707.293.993.993 0 0 0 .707-.293l2-2a.999.999 0 0 0 0-1.414L14.323 13l1.086-1.086 7.793 7.793zM14.91 2.415L19.495 7l-.586.586L14.323 3l.586-.585zm-3 12.171L7.323 10l.586-.585L12.495 14l-.586.586zm2-9.171L16.495 8l-3.586 3.586L10.323 9l3.586-3.585z"/></g></g></svg>
