<svg width="17" height="20" xmlns="http://www.w3.org/2000/svg"><g fill="none" fill-rule="evenodd"><path d="M-3.273-2h24v23h-24z"/><g fill="#007FED" fill-rule="nonzero"><path d="M15.727 7.583h-14c-.552 0-1 .43-1 .959v6.708h2V9.5h1v5.75c0 .53.448.958 1 .958h1v2.875h2v-2.875h2v2.875h2v-2.875h1c.552 0 1-.428 1-.958V9.5h1v5.75h2V8.542c0-.53-.448-.959-1-.959zm-4 6.709h-6V9.5h6v4.792zM3.727 5.667c0 .53.448.958 1 .958h8c.552 0 1-.428 1-.958a4.62 4.62 0 0 0-.833-2.639l1.54-1.475L13.02.197l-1.54 1.476A5.12 5.12 0 0 0 8.727.875a5.129 5.129 0 0 0-2.753.798L4.434.197 3.02 1.553l1.54 1.475a4.617 4.617 0 0 0-.833 2.639zm5-2.875c1.304 0 2.416.8 2.83 1.916H5.897c.413-1.116 1.525-1.916 2.83-1.916z"/></g></g></svg>
