<svg width="21" height="21" xmlns="http://www.w3.org/2000/svg"><g fill="none" fill-rule="evenodd"><path d="M-1.09-1h24v23h-24z"/><g fill="#007FED"><path d="M11.91 5.709h5v1.917h-5zM11.91 9.542h5v1.917h-5zM11.91 13.375h3v1.917h-3zM6.91 5.709h3v1.917h-3zM4.91 9.542h5v1.917h-5zM4.91 13.375h5v1.917h-5z"/><path d="M18.91.917h-16c-1.104 0-2 .86-2 1.916v15.334c0 1.057.896 1.916 2 1.916h16c1.102 0 2-.86 2-1.916V2.833c0-1.057-.898-1.916-2-1.916zm-.004 17.25H2.91V2.833h16l-.003 15.334z" fill-rule="nonzero"/></g></g></svg>
