<svg width="25" height="21" xmlns="http://www.w3.org/2000/svg"><g fill="none" fill-rule="evenodd"><path d="M.818 0h24v23h-24z"/><g transform="translate(.818 .917)" fill="#007FED"><path d="M8 14.375h8v1.917H8z"/><path d="M22 5.75h-9v-.958c0-.528.449-.959 1-.959h1c1.654 0 3-1.29 3-2.875V0h-2v.958c0 .528-.449.959-1 .959h-1c-1.654 0-3 1.29-3 2.875v.958H2c-1.103 0-2 .859-2 1.917v9.583c0 1.057.897 1.917 2 1.917h20c1.103 0 2-.86 2-1.917V7.667c0-1.058-.897-1.917-2-1.917zM2 17.25V7.667h20l.001 9.583H2z" fill-rule="nonzero"/><ellipse cx="6" cy="9.583" rx="1" ry="1"/><ellipse cx="9" cy="9.583" rx="1" ry="1"/><ellipse cx="12" cy="9.583" rx="1" ry="1"/><ellipse cx="15" cy="9.583" rx="1" ry="1"/><ellipse cx="18" cy="9.583" rx="1" ry="1"/><ellipse cx="6" cy="12.458" rx="1" ry="1"/><ellipse cx="9" cy="12.458" rx="1" ry="1"/><ellipse cx="12" cy="12.458" rx="1" ry="1"/><ellipse cx="15" cy="12.458" rx="1" ry="1"/><ellipse cx="18" cy="12.458" rx="1" ry="1"/></g></g></svg>
