<svg width="24" height="23" xmlns="http://www.w3.org/2000/svg"><g fill="none" fill-rule="evenodd"><path d="M0 0h24v22.545H0z"/><path d="M12 0C5.383 0 0 5.059 0 11.273c0 6.216 5.383 11.272 12 11.272s12-5.056 12-11.272C24 5.059 18.617 0 12 0zm9.959 12.037l-2.012-.314a2.734 2.734 0 0 0-.683-1.34l1.825-3.001a8.829 8.829 0 0 1 .911 3.89c0 .26-.02.513-.041.765zm-2.053-6.495l-2.374 3.903c-.173-.03-.35-.051-.532-.051a3.11 3.11 0 0 0-1.286.283L13.7 7.785c.187-.368.3-.774.3-1.21 0-.433-.113-.84-.3-1.206l2.687-2.525a9.956 9.956 0 0 1 3.519 2.698zm-5.599-3.401l-2.021 1.898A3.123 3.123 0 0 0 11 3.758a3.05 3.05 0 0 0-2.438 1.187L5.523 4.13A10.34 10.34 0 0 1 12 1.879c.795 0 1.564.097 2.307.262zM3.991 5.672l4.028 1.08C8.118 8.225 9.408 9.394 11 9.394c.463 0 .895-.106 1.286-.28l2.014 1.891a2.65 2.65 0 0 0-.294 1.155l-3.651 1.144A3.056 3.056 0 0 0 8 12.212c-.381 0-.741.073-1.076.196L2.76 7.844l-.088.07a9.272 9.272 0 0 1 1.319-2.242zM2 11.272c0-.429.041-.848.102-1.263l3.307 3.624A2.668 2.668 0 0 0 5 15.03c0 .844.401 1.592 1.025 2.107l-.533 1.254C3.358 16.668 2 14.118 2 11.273zm5.176 8.224l.706-1.659c.04.003.077.011.118.011 1.638 0 2.964-1.233 2.994-2.764l3.651-1.143c.28.335.636.61 1.05.798l-.648 5.478c-.961.29-1.984.45-3.047.45-1.749 0-3.393-.426-4.824-1.17zm9.992-.195l.514-4.35a2.975 2.975 0 0 0 1.93-1.377l1.987.312c-.706 2.284-2.312 4.206-4.431 5.415z" fill="#007FED" fill-rule="nonzero"/></g></svg>
