<svg width="19" height="20" xmlns="http://www.w3.org/2000/svg"><g fill="none" fill-rule="evenodd"><path d="M-2.911-1.081h24V21h-24z"/><g fill="#007FED"><path d="M12.462 4.778c-.8 0-1.598.21-2.371.593V3.52c0-1.522-1.346-2.76-3-2.76h-2V2.6h2c.55 0 1 .413 1 .92v1.851c-.773-.383-1.572-.593-2.371-.593-3.317 0-5.63 3.216-5.63 6.102 0 4.179 3.468 8.28 7 8.28.263 0 .519-.098.705-.267.29-.263.904-.653 1.296-.653.39 0 1.004.39 1.295.652.187.172.44.268.705.268 3.533 0 7-4.101 7-8.28 0-2.886-2.312-6.102-5.63-6.102zm-1.023 12.519c-.48-.356-1.37-.897-2.348-.897-.98 0-1.87.541-2.348.897-2.283-.303-4.652-3.496-4.652-6.417 0-1.97 1.585-4.262 3.629-4.262.879 0 1.775.415 2.664 1.232.39.36 1.023.36 1.414 0 .889-.817 1.785-1.232 2.664-1.232 2.044 0 3.629 2.291 3.629 4.262 0 2.921-2.37 6.114-4.652 6.417z" fill-rule="nonzero"/><path d="M15.09.76s-2 0-3 .92-1 2.76-1 2.76 2 0 3-.92 1-2.76 1-2.76z"/></g></g></svg>
