<svg width="21" height="16" xmlns="http://www.w3.org/2000/svg"><g fill="none" fill-rule="evenodd"><path d="M-1.273-4h24v24h-24z"/><g fill="#007FED"><path d="M18.727 0h-10c-1.104 0-2 .898-2 2v1h-2c-2.205 0-4 1.794-4 4v6a1 1 0 0 0 1 1h2.185a2.993 2.993 0 0 0 2.815 2 2.996 2.996 0 0 0 2.816-2h3.368a2.994 2.994 0 0 0 2.815 2 2.997 2.997 0 0 0 2.816-2h1.185a1 1 0 0 0 1-1V2c0-1.102-.896-2-2-2zm0 2v10h-.184a2.997 2.997 0 0 0-2.816-2 2.997 2.997 0 0 0-2.816 2H9.544a2.997 2.997 0 0 0-.816-1.219V2h10zm-16 5c0-1.103.896-2 2-2h2v5a2.996 2.996 0 0 0-2.816 2H2.727V7zm4 7a1.001 1.001 0 0 1 0-2 1.001 1.001 0 0 1 0 2zm9 0a1.001 1.001 0 0 1 0-2 1.001 1.001 0 0 1 0 2z" fill-rule="nonzero"/><path d="M3.727 6h2v2h-2z"/></g></g></svg>
