<svg width="21" height="20" xmlns="http://www.w3.org/2000/svg"><g fill="none" fill-rule="evenodd"><path d="M-1.456-2h24.001v24.001h-24z"/><g fill="#007FED"><path d="M6.844 4.327l.42-.602A4.003 4.003 0 0 1 10.545 2c1.303 0 2.53.644 3.281 1.726l.42.602c2.494-.781 3.3.571 3.3 1.672h2c0-2.372-2.069-4.318-4.505-3.962A5.996 5.996 0 0 0 10.545 0C8.818 0 7.185.75 6.05 2.037 3.611 1.684 1.545 3.627 1.545 6h2c0-1 .695-2.487 3.3-1.673z"/><path d="M19.545 7h-18C.998 7 .491 7.445.566 8.108c-.023.003.871 7.984.874 8.008A2.144 2.144 0 0 0 3.545 18h.184a2.997 2.997 0 0 0 2.816 2 2.996 2.996 0 0 0 2.816-2h2.367a2.997 2.997 0 0 0 2.816 2 2.997 2.997 0 0 0 2.816-2h.185a2.14 2.14 0 0 0 2.104-1.883l.891-8.006c0-.001.046-1.111-.995-1.111zm-13 11a1 1 0 1 1-.001-1.998A1 1 0 0 1 6.545 18zm8 0a1 1 0 1 1-.001-1.998A1 1 0 0 1 14.545 18zm3.116-2.104c-.005.04-.076.104-.116.104h-.184a2.997 2.997 0 0 0-2.816-2 2.997 2.997 0 0 0-2.816 2H9.362a2.998 2.998 0 0 0-2.817-2 2.996 2.996 0 0 0-2.816 2h-.184c-.04 0-.11-.064-.117-.104L2.662 9h15.766l-.767 6.896z" fill-rule="nonzero"/></g></g></svg>
