<svg width="240" height="240" viewBox="0 0 240 240" xmlns="http://www.w3.org/2000/svg" xmlns:xlink="http://www.w3.org/1999/xlink">
  <defs>
    <rect id="a" x="0" y="0" width="240" height="240" rx="120"/>
  </defs>
  <g fill="none" fill-rule="evenodd">
    <g>
      <mask id="b" fill="#fff">
        <use xlink:href="#a"/>
      </mask>
      <use fill="#F4F7FB" xlink:href="#a"/>
      <g mask="url(#b)">
        <path d="M61.27272727 130H180.727273C184.743889 130 188 133.25611091 188 137.27272727V233.727273C188 237.743889 184.743889 241 180.727273 241H61.27272727C57.25611091 241 54 237.743889 54 233.727273v-96.45454573C54 133.25611091 57.25611091 130 61.27272727 130z" stroke="#007FED" stroke-width="9.09090909" fill="#007FED"/>
        <path d="M151 160h24v24h-24z"/>
      </g>
      <circle fill="#FFF" mask="url(#b)" cx="121" cy="186" r="32"/>
      <path d="M124 182.986872h-6c-1.653 0-3-1.344-3-3s1.347-3 3-3h12c1.656854 0 3-1.343146 3-3 0-1.656855-1.343146-3-3-3h-6V167c0-1.656854-1.343146-3-3-3s-3 1.343146-3 3v3.986872c-4.962 0-9 4.041-9 9 0 4.962 4.038 9 9 9h6c1.653 0 3 1.344 3 3s-1.347 3-3 3h-12c-1.656854 0-3 1.343145-3 3 0 1.656854 1.343146 3 3 3h6v4.035841c0 1.656854 1.343146 3 3 3s3-1.343146 3-3v-4.035841c4.962 0 9-4.038 9-9 0-4.959-4.038-9-9-9z" fill="#007FED" fill-rule="nonzero" mask="url(#b)"/>
    </g>
    <path d="M84 125c0-32 12-48 36-48s36 16 36 48" stroke="#C8D3DD" stroke-width="10" stroke-linecap="round"/>
  </g>
</svg>
