<svg xmlns="http://www.w3.org/2000/svg" viewBox="0 0 330 220"><defs><style>.cls-1{fill:#0086ff}.cls-2{fill:#b0ddff}.cls-3{fill:none;stroke:#0086ff;stroke-linecap:round;stroke-linejoin:round;stroke-width:2.47px}</style></defs><g id="BOXES"><path class="cls-1" d="M119.82 180.56l-8.09-.69-3.16-7.45-3.16 7.46-8.09.68 6.15 5.32-1.85 7.91 6.95-4.19 7 4.19-1.83-7.91zM147.56 180.56l-8.09-.69-3.16-7.45-3.16 7.46-8.09.68 6.15 5.32-1.85 7.91 6.95-4.19 6.95 4.19-1.83-7.91zM175.3 180.56l-8.09-.69-3.16-7.45-3.16 7.46-8.09.68 6.15 5.32-1.85 7.91 7-4.19 6.95 4.19-1.83-7.91zM203 180.56l-8.09-.69-3.16-7.45-3.16 7.46-8.09.68 6.15 5.32-1.85 7.91 6.95-4.19 7 4.19-1.83-7.91zM230.78 180.56l-8.09-.69-3.16-7.45-3.16 7.46-8.09.68 6.15 5.32-1.85 7.91 6.95-4.19 6.95 4.19-1.83-7.91z"/><path class="cls-2" d="M269.35 107.73s-3.4-6.21-3.4-8.08S267.83 84 267.83 84l2.1-8.44s2.35 4.57 3.75 5.74 7.39 6.91 7.39 6.91 4.68 2.11 5.5 2.46a18.43 18.43 0 002.93.71s.24 4.92.35 6.68a13.11 13.11 0 01-1.64 6.44c-.93 1.29-2.57 3.63-2.57 3.63s7.85-1.64 9.6-4.33 6.8-8.2 4.1-15.59-8.78-19.45-8.78-19.45-2.7-4.57-5.63-4.57-10.66-.11-12.42.12-5.62 2.46-6.44 3.75-7.15 13-7.15 13l-2.23 9.14s-.46 8.08.82 9.37 3.64 5.51 5.39 6.21 6.45 1.95 6.45 1.95zM66.08 77.5c.35-.23 15.7-12.77 15.7-12.77l-11.3 17.41zM57.74 72.58l-5.97-1.64-6.33.82-4.33 3.05-3.45 4.24-5.46 2.9-4.45 7.03.26 8.4-4.24 6.84.46 6.32 4.34 5.86-1.17 6.43 8.32-3.38 3.04-4.69-2.34-9.72 2.46-9.61 3.87-10.08 6.21-6.79 7.43-2.59 1.35-3.39z"/><path class="cls-3" d="M70 82.14l13.04-18.66-17.61 14.66M34.9 119.93c-.08 1.83-.08 2.9-.08 2.9h35.85c0-12.35-12.35-14.74-12.35-23.85"/><path class="cls-3" d="M58.47 73a14.83 14.83 0 00-20.81 6.07A14.84 14.84 0 0028 97.38a12.72 12.72 0 00-4.32 9.38c0 7.44 7.82 8.25 3.71 16.07 0 0 8.68-1.14 10.86-7.1a9.91 9.91 0 00-1.86-9.88c2.2-12.8 7.45-28.4 20-29.88a18.13 18.13 0 018.1-7.54v9.15a25.44 25.44 0 017.73 7.31c3.9 5.35 8.34 10.66 8.34 12 0 2.47-3.7 6.18-6.18 6.18S65.43 98 65.43 98a8.66 8.66 0 01-13.3-7.3"/><path class="cls-2" d="M176.25 50.42l3.9.13 1.88 1.88-.12 8.3-7.29.37 2.26-4.65-.63-6.03zM153 50.55l-3.4-.13-2.51 1.63-.25 14.96 3.02-2.76 5.4-2.52-3.01-5.15.75-6.03zM181.91 71.03l-.13 19.11-.25 2.64-3.52 1.51-.5-18.73 1.63-4.02 2.77-.51zM197.12 52.31l6.91 5.9 2.51-4.77-1.38-3.15-4.52-1.38-3.52 3.4zM143.07 100.32l8.42-.13-.38 4.03-3.27 2.26-4.65-1.38-.12-4.78zM167.2 133.13l10.94.12 5.15 1.26 2.14 3.52-.13 2.76-1.51 1.14-17.34-.76.75-8.04zM161.55 133.25l-9.81-.12-5.78 1.88-2.14 1.89-.12 3.89 7.54 1.39 11.31-.51-1-8.42z"/><ellipse class="cls-2" cx="164.63" cy="55.23" rx="7.17" ry="6.63"/><path class="cls-2" d="M157.02 73.92h14.45V84.1h-14.45z"/><path stroke-miterlimit="10" stroke-width="2" fill="none" stroke="#0086ff" d="M101.44 29.98h127.49v127.49H101.44z"/><path class="cls-1" d="M164.61 63a8.73 8.73 0 008.76-8.68c0-4.28-3.19-6.74-8.76-6.74s-8.77 2.46-8.77 6.74a8.74 8.74 0 008.77 8.68zm0-13.18c4.33 0 6.53 1.51 6.53 4.5a6.54 6.54 0 01-13.07 0c0-2.98 2.2-4.49 6.54-4.49z"/><path class="cls-1" d="M205.57 50l-.42-.35a5.17 5.17 0 00-7.27.64l-1.19 1.42v.06c-3.43 4.62-8.89 6.69-13.48 7.6v-5.6a4.48 4.48 0 00-4.49-4.46h-1.9a13.19 13.19 0 00-24.35 0h-1.25v-5a1.12 1.12 0 10-2.23 0v5.19a4.46 4.46 0 00-3.14 4.23v13.13a1 1 0 000 .17 19.49 19.49 0 00-4.12 11.91v23.28a5.17 5.17 0 005.16 5.16h.54a5.1 5.1 0 002.93-.92v25.73h-.57a7.46 7.46 0 00-7.49 7.42 3.19 3.19 0 003.2 3.17h16.86a1.12 1.12 0 001.11-1.12V115.7a1 1 0 012.07 0v25.93a1.12 1.12 0 001.11 1.12h16.86a3.18 3.18 0 003.19-3.17 7.46 7.46 0 00-7.48-7.42h-.37v-31.79-5.06a4.47 4.47 0 004.32-4.44v-19.1A36.45 36.45 0 00205 58.67l1.18-1.4a5.17 5.17 0 00-.61-7.27zm-6 1.72a2.94 2.94 0 014.13-.36l.41.35a2.93 2.93 0 01.37 4.12l-.48.57-4.9-4.11zm-20.91-.18a2.25 2.25 0 012.26 2.23v6a38.54 38.54 0 01-4.59.33 12.84 12.84 0 001.42-5.86 12.6 12.6 0 00-.29-2.69zm-14.07-8.1a10.8 10.8 0 11-10.93 10.79 10.88 10.88 0 0110.95-10.79zm-14.31 8.1h1.43a13.27 13.27 0 00-.28 2.69 12.81 12.81 0 002 6.84 19.5 19.5 0 00-5.38 3.55V53.77a2.24 2.24 0 012.25-2.23zm-2.87 53.61h-.54a2.93 2.93 0 01-2.93-2.93v-.74h6.4v.74a2.93 2.93 0 01-2.91 2.93zm31.42-12.08V75.79a3.84 3.84 0 012.09-3.42v18.5a2.23 2.23 0 01-2.07 2.2zm3-23.32a6.1 6.1 0 00-5.24 6v24.45a.79.79 0 000 .13v32.15a9.49 9.49 0 00-4.28 2.54 1.12 1.12 0 000 1.58 1.12 1.12 0 001.57 0 7.32 7.32 0 015.29-2.23 5.22 5.22 0 015.25 5.19 1 1 0 01-1 .94h-15.65v-6.13h2.36a1.12 1.12 0 000-2.23h-2.36V115.7a3.27 3.27 0 00-6.53 0v16.46h-2.36a1.12 1.12 0 000 2.23h2.36v6.13H145.5a1 1 0 01-1-.94 5.22 5.22 0 015.25-5.19 7.28 7.28 0 015.28 2.23 1.12 1.12 0 001.6-1.56 9.44 9.44 0 00-4.08-2.48V80.76a1.12 1.12 0 10-2.23 0v18.49H144V78.94a17.46 17.46 0 0110.85-16 13.21 13.21 0 0020.11-.6h1.32c4 0 15-.75 21.45-8.33l4.91 4.12a34.8 34.8 0 01-20.78 11.62z"/><path class="cls-1" d="M170.35 72.7h-11.49a3 3 0 00-3 3v7.11a3 3 0 003 3h11.49a3 3 0 003-3v-7.09a3 3 0 00-3-3.02zm.79 10.13a.78.78 0 01-.79.78h-11.49a.79.79 0 01-.79-.78v-7.11a.79.79 0 01.79-.78h11.49a.78.78 0 01.79.78zM303.79 117.2l-.26-.24c-1.94-1.56-4.7-2.3-7.62-2.95l-1.2-.27c-.86-.18-1.74-.37-2.64-.59-3.22-.77-7.05-2.22-7.86-3.6-.92-1.56-.4-5.4 0-7.33v-.17a17.9 17.9 0 004.79-6.28c0 3-.43 6.72-1.94 9.28a6.43 6.43 0 01-2.18 2.3.92.92 0 00-.4 1.06.9.9 0 00.93.63 18.82 18.82 0 004.59-1 15.32 15.32 0 008.64-7c3.69-6.82 1.82-16.9-5.56-30l-.46-.82c-1.77-3.29-4-7.38-14.32-7.47h-.42c-10.34.09-12.55 4.18-14.33 7.46-.15.29-.3.56-.45.83-7.38 13.06-9.25 23.14-5.56 30a15.34 15.34 0 008.71 7 19.11 19.11 0 004.52 1h.06a.9.9 0 00.37-1.74 6.82 6.82 0 01-2.09-2.12c-1.56-2.41-2.05-5.93-1.95-9.71A18.3 18.3 0 00272 102v.19c.46 2.31.81 5.91 0 7.33s-4.65 2.85-7.86 3.6c-.86.2-1.71.39-2.54.56l-1.29.28c-2.94.65-5.7 1.4-7.64 3-.09.07-.16.15-.25.23a8 8 0 00-2.52 6.36h1.82v-1a5.78 5.78 0 011.66-3.89l1.89.32 22.5 3.75h.3l22.8-3.75 1.89-.32a5.81 5.81 0 011.67 3.89v1h1.82a7.91 7.91 0 00-2.46-6.35zm-36-10.72l.11.18-.22-.07a14 14 0 01-8.56-6.43c-3.37-6.24-1.51-15.72 5.54-28.2.16-.28.32-.57.47-.86 1.73-3.18 3.51-6.48 12.93-6.51s11.19 3.33 12.94 6.51l.47.86c7.05 12.47 8.92 22 5.55 28.18a13.93 13.93 0 01-8.49 6.42l-.36.11.18-.29c2.83-4.33 2.6-11.39 2.26-14.92a.91.91 0 00-.62-1.1.86.86 0 00-.39 0c-9.99-.1-18.6-15.36-18.7-15.49a.9.9 0 00-.79-.46H270a.89.89 0 00-.77.61c-.33.98-7.61 22.6-1.47 31.46zm-.19-14.82a1.08 1.08 0 00-.16-.28 85.43 85.43 0 013-13.87c2.6 4.06 9.63 13.75 18.1 14.59-2.17 6.39-6.16 10.46-10.38 10.46s-8.43-4.17-10.59-10.9zm31.74 25.77l-21.4 3.57-21.08-3.51-1.18-.2a15.84 15.84 0 012.12-.74c1.22-.36 2.6-.67 4.16-1 .84-.18 1.7-.36 2.57-.57 1.75-.41 7.55-1.93 9-4.45 1-1.77.81-5 .5-7.09a8.94 8.94 0 004 1 9.05 9.05 0 004.05-1c-.31 2.14-.53 5.31.5 7.07 1.45 2.48 7.26 4 9 4.45.91.22 1.8.41 2.67.6 1.54.34 2.89.65 4.08 1a17.35 17.35 0 012.08.72z"/></g></svg>