<svg width="96" height="96" viewBox="0 0 96 96" xmlns="http://www.w3.org/2000/svg"><g fill="none" fill-rule="evenodd"><g transform="translate(15 17)"><path d="M40.84 1H4a2.992 2.992 0 00-3 2.992v25.33c.004 2.176.017 5.065.032 6.953l.05 6.144c.004.379.048.692.47 1.06.242-.093.5-.28.777-.542l9.065-8.613c1.77-1.68 5.16-3.032 7.586-3.032h21.864a2.99 2.99 0 002.117-.88 2.978 2.978 0 00.879-2.112V3.992a2.994 2.994 0 00-3-2.992z" stroke="#0091FF" stroke-width="2"/><path fill="#FFF" d="M20.294 19.1h27.623v20.294H20.294z"/><path d="M26.858 23.065H63.7a2.992 2.992 0 013 2.992l-.001 24.801c-.002 2.216-.016 5.437-.032 7.482l-.05 6.144c-.003.379-.048.692-.47 1.06-.242-.093-.5-.28-.776-.542l-9.066-8.613c-1.769-1.68-5.16-3.032-7.586-3.032H26.855a2.99 2.99 0 01-2.117-.88 2.978 2.978 0 01-.879-2.112V26.057a2.994 2.994 0 012.999-2.992z" stroke="#0091FF" stroke-width="2"/><ellipse fill="#0091FF" cx="36.048" cy="37.937" rx="2.198" ry="2.206"/><ellipse fill="#0091FF" cx="45.719" cy="37.937" rx="2.198" ry="2.206"/><ellipse fill="#0091FF" cx="54.511" cy="37.937" rx="2.198" ry="2.206"/></g><path d="M0 0h96v96H0z"/></g></svg>