<svg xmlns="http://www.w3.org/2000/svg" viewBox="0 0 330 220"><g data-name="Layer 2"><path d="M190.52 82.22h-4.21V71.75a21.31 21.31 0 00-42.62 0v10.47h-4.21a4.11 4.11 0 00-4.1 4.1v40.48a4.11 4.11 0 004.1 4.1h51a4.11 4.11 0 004.1-4.1V86.32a4.11 4.11 0 00-4.06-4.1zm-14.33 0h-22.37V71.75a11.19 11.19 0 0122.37 0z" fill="#0086ff"/><path d="M170.15 111.52a3.67 3.67 0 00-1.12-2.75 11.61 11.61 0 00-4-2.06 12.74 12.74 0 01-4.79-2.42 5.14 5.14 0 01-1.56-4 5.45 5.45 0 011.56-4 6.43 6.43 0 014.23-1.77v-3.11h1.59v3.08a6 6 0 014.22 2 7 7 0 011.46 4.75l-.05.07H170a5.58 5.58 0 00-1.24-3.77 4.38 4.38 0 00-3.49-1.45 4.81 4.81 0 00-3.5 1.18 4.06 4.06 0 00-1.19 3 3.78 3.78 0 001.06 2.8 10.63 10.63 0 004.06 2 13.46 13.46 0 014.78 2.45 5 5 0 011.55 3.94 5.28 5.28 0 01-1.62 4.05 7 7 0 01-4.36 1.74v2.9h-1.58v-2.89a7.72 7.72 0 01-4.68-1.76 5.82 5.82 0 01-1.79-4.82v-.09h1.75a4.56 4.56 0 001.57 3.89 6.07 6.07 0 003.8 1.19 5.32 5.32 0 003.65-1.18 3.82 3.82 0 001.38-2.97z" stroke-miterlimit="10" fill="#fff" stroke="#fff" stroke-width="1.37"/></g><path fill="none" stroke="#0086ff" stroke-width="2" stroke-miterlimit="10" d="M101.44 29.98h127.49v127.49H101.44z"/></svg>