<svg xmlns="http://www.w3.org/2000/svg" viewBox="0 0 330 220"><defs><style>.cls-2{fill:#0086ff}</style></defs><path d="M224.23 148.48a41 41 0 00-6-2.76 49.63 49.63 0 008.44-7.25c3.47-3.63 3.14-11.72.83-15.69-.93-1.6-1.16-3.75-2.68-5.09a1.64 1.64 0 00.2-.26c1.65-2.64 4-6.33 4.13-9.57 0-1 .33-6.11-1.16-9.75a14.62 14.62 0 00-14.86-8.75 16.32 16.32 0 00-10.76 5 12 12 0 00-10.21 0 9.49 9.49 0 00-5.59 8c-2.2-1.24-5.65-2-11.25-1.44-6.95.72-10.08 6-11.27 8.91-15 .44-16.24 15.65-16.21 20.88-5.22.52-7.76 3-9 4.89-4.1-2-9.47-2.78-13.44-.5a10.94 10.94 0 00-5.24 7.57 10.71 10.71 0 00-5.91 8.46h-.08c-8.91-1.49-10.73 6.51-10.73 6.51s114.77.82 124.84-.23c3.07-.33-2.57-7.78-4.05-8.93zm-22.46-34.68h.11a15.23 15.23 0 00.62 2.69c-.35.17-.69.33-1.05.52-6 3.18-8.38 7.16-9.31 9.8l-.26-.11a32.13 32.13 0 00.55-14.2 46 46 0 009.34 1.3z" fill="#c7e5f8" fill-rule="evenodd" id="smoke"/><g id="Layer_2" data-name="Layer 2"><path class="cls-2" d="M145.16 150.06h9.53l8.77-50.18h-3.27l-15.03 50.18zM169.79 99.88h-3.29l8.79 50.18h9.55l-15.05-50.18z"/><path class="cls-2" d="M151.37 102.31a8.44 8.44 0 002 2.56 9.68 9.68 0 001.43 1 13.86 13.86 0 014.27-10.33h11.86a13.85 13.85 0 014.27 10.32 8.43 8.43 0 001.42-1 8.13 8.13 0 002-2.55c2.41-4.8.38-12.19-5.11-19.54.13-1.57.19-3.18.19-4.81 0-12.1-3.5-22.64-8.69-28.18-5.21 5.55-8.71 16.09-8.71 28.22 0 1.63.06 3.24.18 4.81-5.48 7.31-7.48 14.7-5.11 19.5z"/><path class="cls-2" d="M169.79 98.51c.28-.66.56-1.34.82-2.05h-11.25c.26.71.54 1.39.82 2.05z"/></g><path fill="none" stroke="#0086ff" stroke-miterlimit="10" stroke-width="2" d="M101.44 29.98h127.49v127.49H101.44z" id="BOXES"/></svg>