<svg width="96" height="96" viewBox="0 0 96 96" xmlns="http://www.w3.org/2000/svg" xmlns:xlink="http://www.w3.org/1999/xlink"><defs><path d="M14.239 35.156c-.495 0-2.002 1.24-4.524 3.72L7.76 7.28C22.902 3.092 30.73.972 31.245.919 31.76.865 41.65 3.307 60.917 8.242l1.604 34.397-2.876-1.11-26.91 4.126 4.42-3.016-.787-4.905c-14.258-1.72-21.635-2.58-22.13-2.58z" id="a"/></defs><g fill="none" fill-rule="evenodd"><path d="M0 0h96v96H0z"/><g transform="translate(17 6)"><path d="M0 77.704h62.598c.11-4.025-.737-6.647-2.54-7.866-9.697-6.552-21.431-10.525-21.903-11.027-1.111-1.185-1.645-2.13-1.745-7.255l-.007-.4.338-.215c4.942-3.136 8.16-9.62 8.16-16.863 0-12.388-4.181-18.786-14.59-18.786-10.407 0-14.588 6.398-14.588 18.786 0 7.34 3.305 13.895 8.348 16.98l.345.212-.004.403c-.047 4.804-.287 5.647-.748 6.897-.259.701-11.116 4.053-20.569 10.56C1.318 70.354.286 73.212 0 77.704z" stroke="#0091FF" stroke-width="2"/><ellipse fill="#0091FF" cx="32.213" cy="44.541" rx="5.623" ry="3.011"/><path d="M47.531 44.385c6.544.044 9.817-3.239 9.817-9.846 0-6.609-2.798-10.093-8.393-10.453l-1.424 20.299zm-35.525-1.509c-5.943.04-8.91-2.94-8.91-8.937 0-5.999 2.539-9.16 7.617-9.488l1.293 18.425z" fill="#0091FF" fill-rule="nonzero"/><mask id="b" fill="#fff"><use xlink:href="#a"/></mask><path d="M10.06 43.464l27.217 4.937c4.464-.068 7.808-.265 10.022-.59 1.075-.157 1.869-.343 2.365-.547.168-.069.29-.135.361-.188V25.723C46.913 15.856 40.458 9.55 30.51 9.55c-9.955 0-16.729 6.318-20.45 16.196v17.72z" stroke="#0091FF" stroke-width="2" mask="url(#b)"/></g><path stroke="#0091FF" stroke-width="2" d="M50.403 51.133l16.404-2.767"/></g></svg>