<svg width="96" height="96" viewBox="0 0 96 96" xmlns="http://www.w3.org/2000/svg"><g fill="none" fill-rule="evenodd"><g stroke="#0091FF" stroke-width="2"><path d="M78.682 35.477v46.406H14V17.519h46.78"/><path d="M71.863 76.484c-1.511-3.399-8.889-5.648-13.79-7.76-4.903-2.11-4.233-3.391-4.41-5.142l-.01-.105c1.759-.51 4.637-1.675 6.127-3.89 2.108-3.137 1.543-7.198 1.673-9.34.131-2.14.234-6.982-.688-10.71-.921-3.727-2.094-7.203-4.273-9.133-2.18-1.93-3.918-1.792-4.977-1.48-.085-.316-.313-.83-.923-1.074-.913-.365-5.824-1.425-10.46 1.03-4.635 2.453-6.571 7.365-7.737 11.875-1.166 4.51-1.765 9.423-.685 15.027.953 4.945 5.267 6.705 7.505 7.282-.01.178-.022.352-.04.519-.175 1.75.34 3.03-4.562 5.142-4.902 2.112-12.28 4.36-13.791 7.76-1.512 3.398-.908 5.398-.908 5.398h52.852s.61-2-.903-5.399z"/></g><path fill="#0091FF" fill-rule="nonzero" d="M77.678 26.775l-9.087 4.798 1.74-10.169-7.348-7.202 10.151-1.486 4.538-9.25 4.543 9.25 10.145 1.486-7.347 7.202 1.74 10.169z"/><path d="M0 0h96v96H0z"/></g></svg>